<svg xmlns="http://www.w3.org/2000/svg" viewBox="0 0 256 256">
  <defs>
    <linearGradient id="vite-gradient" x1="0%" y1="0%" x2="100%" y2="100%">
      <stop offset="0%" stop-color="#41d1ff"/>
      <stop offset="100%" stop-color="#bd34fe"/>
    </linearGradient>
    <linearGradient id="vite-flame" x1="0%" y1="0%" x2="100%" y2="100%">
      <stop offset="0%" stop-color="#ffea83"/>
      <stop offset="50%" stop-color="#ffa800"/>
      <stop offset="100%" stop-color="#ff5c00"/>
    </linearGradient>
  </defs>
  <path fill="url(#vite-gradient)" d="M255.57 37.49L134.31 252.4c-1.77 3.15-6.42 3.18-8.23.05L.62 37.52c-1.91-3.32.64-7.41 4.31-6.86l123.45 18.63a4.54 4.54 0 002.67-.45L251.2 30.62c3.67-.86 6.77 2.85 4.83 6.15z"/>
  <path fill="url(#vite-flame)" d="M185.37 0L96.8 14.28c-3.2.53-5.03 3.87-3.78 6.78l56.6 128.19c1.5 3.4 6.4 3.42 7.94.03l33.29-73.91c.84-1.87 2.48-3.18 4.46-3.53l33.8-6.08c3.2-.58 4.98-4.1 3.36-6.99L192.98 2.46A4.69 4.69 0 00188.2.2c-.98-.2-1.98-.22-2.97-.2z"/>
</svg>